<?xml version="1.0" encoding="utf-8"?>
<!-- Generator: Adobe Illustrator 18.1.1, SVG Export Plug-In . SVG Version: 6.00 Build 0)  -->
<svg version="1.1" id="Layer_1" xmlns="http://www.w3.org/2000/svg" xmlns:xlink="http://www.w3.org/1999/xlink" x="0px" y="0px"
	 viewBox="0 0 284.7 64" enable-background="new 0 0 284.7 64" xml:space="preserve">
<g>
	<g>
		<g>
			<path fill="#8DC63F" d="M64,32c0,1.2-0.1,2.4-0.2,3.6H0.2C0.1,34.4,0,33.2,0,32C0,14.3,14.3,0,32,0C49.7,0,64,14.3,64,32z"/>
			<path fill="#FFFFFF" d="M62.9,40.3C59.3,54,46.8,64,32,64C17.2,64,4.8,54,1.1,40.3H62.9z"/>
		</g>
	</g>
	<g>
		<path fill="#FFFFFF" d="M90,44.4c-0.9,0-1.8-0.4-2.3-1.1L75.3,26.2v16c0,1.2-1,2.2-2.3,2.2c-1.2,0-2.2-1-2.2-2.2V21.4
			c0-1.5,1.3-2.9,2.9-2.9c1,0,1.9,0.5,2.5,1.2l12.1,16.5V20.7c0-1.2,1-2.2,2.3-2.2c1.2,0,2.2,1,2.2,2.2v20.9
			C92.8,43.1,91.7,44.4,90,44.4z"/>
		<path fill="#FFFFFF" d="M111.4,36.3H99.3c0.3,2.7,2.4,5.1,5.8,5.1c1.3,0,2.9-0.4,4.1-1.2c0.3-0.2,0.6-0.2,0.8-0.2
			c0.8,0,1.7,0.7,1.7,1.7c0,2.1-4.7,3-7.1,3c-5.5,0-9.6-3.8-9.6-9.7c0-5.3,3.9-9.6,9.3-9.6c4.3,0,7.4,2.6,8.6,6.6
			c0.2,0.8,0.5,1.6,0.5,2.4C113.4,35.4,112.5,36.3,111.4,36.3z M104.4,28.6c-3.4,0-4.9,2.7-5.1,4.9h10.2
			C109.4,31.3,108,28.6,104.4,28.6z"/>
		<path fill="#FFFFFF" d="M140.3,28l-4.5,14.4c-0.3,1.1-1.4,1.9-2.6,1.9h-0.1c-1.2,0-2.3-0.8-2.6-1.9l-3.7-11.7l-3.7,11.7
			c-0.3,1.1-1.4,1.9-2.7,1.9h-0.1c-1.2,0-2.2-0.8-2.6-1.9L113.3,28c0-0.2-0.1-0.4-0.1-0.6c0-1,0.8-1.9,2-1.9c0.9,0,1.7,0.6,1.9,1.4
			l3.5,12.1l3.9-11.9c0.3-1,1.2-1.6,2.3-1.6c1,0,1.9,0.6,2.2,1.6l3.9,11.9l3.5-12.1c0.2-0.8,1.1-1.4,1.9-1.4c1.2,0,2,0.9,2,1.9
			C140.4,27.7,140.4,27.9,140.3,28z"/>
		<path fill="#FFFFFF" d="M169.8,44.4c-1.3,0-2.2-1-2.2-2.2v-9h-13.1v9c0,1.2-1,2.2-2.3,2.2c-1.2,0-2.2-1-2.2-2.2V20.7
			c0-1.2,1-2.2,2.3-2.2c1.2,0,2.2,1,2.2,2.2v8.4h13.1v-8.4c0-1.2,1-2.2,2.3-2.2c1.2,0,2.2,1,2.2,2.2v21.4
			C172.1,43.4,171.1,44.4,169.8,44.4z"/>
		<path fill="#FFFFFF" d="M183.9,44.6c-5.9,0-9.5-4.4-9.5-9.7c0-5.3,3.6-9.6,9.5-9.6c5.9,0,9.5,4.4,9.5,9.6
			C193.4,40.2,189.8,44.6,183.9,44.6z M183.9,28.9c-3.4,0-5.3,2.8-5.3,6c0,3.2,1.9,6.1,5.3,6.1c3.4,0,5.2-2.8,5.2-6.1
			C189.1,31.7,187.2,28.9,183.9,28.9z"/>
		<path fill="#FFFFFF" d="M203.6,29.4c-1.6,0.2-3.2,0.8-4.2,2.2v10.7c0,1.1-0.9,2-2,2h-0.1c-1.1,0-2-0.9-2-2V27.5c0-1.1,0.9-2,2.1-2
			c1.1,0,2,0.9,2,2v1c1-1.3,2.4-2.9,4.4-2.9c1.1,0,1.8,0.8,1.8,1.8C205.5,28.5,204.7,29.3,203.6,29.4z"/>
		<path fill="#FFFFFF" d="M211.7,21c0,1.4-1.1,2.5-2.5,2.5c-1.4,0-2.5-1.1-2.5-2.5c0-1.4,1.1-2.5,2.5-2.5
			C210.6,18.5,211.7,19.6,211.7,21z M209.2,44.4c-1.1,0-2-0.9-2-2V27.5c0-1.1,0.9-2,2.1-2c1.1,0,2,0.9,2,2v14.9
			C211.3,43.5,210.4,44.4,209.2,44.4z"/>
		<path fill="#FFFFFF" d="M228,44.2h-11.4c-1.1,0-2-0.9-2-2.1c0-0.5,0.2-0.9,0.5-1.3l8.8-11.4h-7.5c-1,0-1.8-0.8-1.8-1.8
			c0-1,0.8-1.8,1.8-1.8h11.2c1,0,1.9,0.8,1.9,2c0,0.5-0.2,1-0.4,1.3l-8.9,11.6h7.8c0.9,0,1.7,0.8,1.7,1.7
			C229.7,43.4,228.9,44.2,228,44.2z"/>
		<path fill="#FFFFFF" d="M239.3,44.6c-5.9,0-9.5-4.4-9.5-9.7c0-5.3,3.6-9.6,9.5-9.6c5.9,0,9.5,4.4,9.5,9.6
			C248.8,40.2,245.2,44.6,239.3,44.6z M239.3,28.9c-3.4,0-5.3,2.8-5.3,6c0,3.2,1.9,6.1,5.3,6.1c3.4,0,5.2-2.8,5.2-6.1
			C244.5,31.7,242.6,28.9,239.3,28.9z"/>
		<path fill="#FFFFFF" d="M265.1,44.4c-1.1,0-2-0.9-2-2v-9.7c0-2.8-1.4-3.8-3.7-3.8c-2,0-3.8,1.2-4.6,2.4v11c0,1.1-0.9,2-2.1,2
			c-1.1,0-2-0.9-2-2V27.5c0-1.1,0.9-2,2.1-2c1.1,0,2,0.9,2,2v0.8c1.2-1.4,3.5-3,6.5-3c4,0,5.9,2.2,5.9,5.9v11.2
			C267.2,43.5,266.3,44.4,265.1,44.4z"/>
		<path fill="#FFFFFF" d="M276.6,44.6c-2.5,0-5.8-0.8-7.2-2.4c-0.2-0.3-0.4-0.6-0.4-1c0-1,0.8-1.7,1.8-1.7c0.3,0,0.6,0.1,0.9,0.3
			c1.4,1,3.3,1.6,5.1,1.6c2.4,0,3.6-1,3.6-2.4c0-3.6-11.1-1-11.1-8.1c0-3,2.6-5.6,7.3-5.6c2.5,0,5.3,0.8,6.5,2.2
			c0.2,0.3,0.3,0.6,0.3,0.9c0,0.9-0.8,1.6-1.6,1.6c-0.3,0-0.6-0.1-0.8-0.2c-1.2-0.8-2.7-1.3-4.4-1.3c-2.1,0-3.4,1-3.4,2.2
			c0,3.2,11.1,0.8,11.1,8.1C284.2,42.1,281.5,44.6,276.6,44.6z"/>
	</g>
</g>
</svg>
