<?xml version="1.0" encoding="utf-8"?>
<!-- Generator: Adobe Illustrator 18.1.1, SVG Export Plug-In . SVG Version: 6.00 Build 0)  -->
<svg version="1.1" id="Layer_1" xmlns="http://www.w3.org/2000/svg" xmlns:xlink="http://www.w3.org/1999/xlink" x="0px" y="0px"
	 viewBox="0 0 284.7 64" enable-background="new 0 0 284.7 64" xml:space="preserve">
<g>
	<g>
		<g>
			<path fill="#8DC63F" d="M64,32c0,1.2-0.1,2.4-0.2,3.6H0.2C0.1,34.4,0,33.2,0,32C0,14.3,14.3,0,32,0C49.7,0,64,14.3,64,32z"/>
			<path fill="#FFFFFF" d="M62.9,40.3C59.3,54,46.8,64,32,64C17.2,64,4.8,54,1.1,40.3H62.9z"/>
		</g>
	</g>
	<g>
		<path fill="#8DC63F" d="M81.9,56.4h-2.5l-4-5.8h-2v5.8h-2.1V41h5.9c3.2,0,4.6,2.4,4.6,4.8c0,2.3-1.1,4.5-4,4.7L81.9,56.4z
			 M73.5,43v5.7h3.7c1.9,0,2.6-1.4,2.6-2.9c0-1.4-0.7-2.9-2.5-2.9H73.5z"/>
		<path fill="#8DC63F" d="M94.1,52h-8.5c0.2,1.7,1.6,2.8,3.4,2.8c1.3,0,2.4-0.6,3-1.6c0.5,0.2,1.2,0.4,1.7,0.7
			c-0.9,1.8-2.8,2.8-4.8,2.8c-3,0-5.3-2.2-5.3-5.5c0-3.3,2.4-5.4,5.3-5.4s5.2,2.1,5.2,5.4C94.2,51.4,94.2,51.8,94.1,52z M92.1,50.4
			c-0.2-1.7-1.5-2.8-3.2-2.8c-1.7,0-3.1,1.1-3.3,2.8H92.1z"/>
		<path fill="#8DC63F" d="M98.8,56.4h-2V40.3h2v7.2c0.6-1.3,2.3-1.8,3.4-1.8c2.6,0,4.2,1.7,4.2,4.6v6c-0.3,0-1.7,0-2,0v-5.9
			c0-1.7-1-2.8-2.5-2.8s-3.2,0.8-3.2,3V56.4z"/>
		<path fill="#8DC63F" d="M118,54.8c-0.7,1.2-2.2,1.8-3.7,1.8c-2.9,0-5.3-2.1-5.3-5.5c0-3.3,2.4-5.4,5.3-5.4c1.5,0,3,0.6,3.7,1.8V46
			h2v10.4h-2V54.8z M114.5,47.8c-1.9,0-3.4,1.3-3.4,3.4c0,2.1,1.5,3.5,3.4,3.5c1.9,0,3.5-1.3,3.5-3.5
			C117.9,49,116.2,47.8,114.5,47.8z"/>
		<path fill="#8DC63F" d="M125.4,56.4h-2V40.3h2v7.2c0.7-1.2,2.1-1.8,3.7-1.8c2.9,0,5.3,2.1,5.3,5.4c0,3.3-2.4,5.5-5.3,5.5
			c-1.5,0-2.9-0.6-3.6-1.8V56.4z M128.9,54.7c1.9,0,3.4-1.4,3.4-3.5c0-2.1-1.5-3.4-3.4-3.4c-1.7,0-3.5,1.2-3.5,3.4
			C125.4,53.4,127,54.7,128.9,54.7z"/>
		<path fill="#8DC63F" d="M138,40.8c0.8,0,1.4,0.6,1.4,1.3s-0.6,1.3-1.4,1.3c-0.8,0-1.4-0.6-1.4-1.3S137.3,40.8,138,40.8z M139,46
			h-2v10.4h2V46z"/>
		<path fill="#8DC63F" d="M144.5,40.3v16.1h-2V40.3H144.5z"/>
		<path fill="#8DC63F" d="M148.9,40.8c0.8,0,1.4,0.6,1.4,1.3s-0.6,1.3-1.4,1.3c-0.8,0-1.4-0.6-1.4-1.3S148.1,40.8,148.9,40.8z
			 M149.9,46h-2v10.4h2V46z"/>
		<path fill="#8DC63F" d="M158.3,46v1.7h-2.2v8.7h-2v-8.7h-1.9V46h1.9v-3.9h2V46H158.3z"/>
		<path fill="#8DC63F" d="M168.7,54.8c-0.7,1.2-2.2,1.8-3.7,1.8c-2.9,0-5.3-2.1-5.3-5.5c0-3.3,2.4-5.4,5.3-5.4c1.5,0,3,0.6,3.7,1.8
			V46h2v10.4h-2V54.8z M165.2,47.8c-1.9,0-3.4,1.3-3.4,3.4c0,2.1,1.5,3.5,3.4,3.5c1.9,0,3.5-1.3,3.5-3.5
			C168.7,49,166.9,47.8,165.2,47.8z"/>
		<path fill="#8DC63F" d="M179.1,46v1.7h-2.2v8.7h-2v-8.7H173V46h1.9v-3.9h2V46H179.1z"/>
		<path fill="#8DC63F" d="M182.4,40.8c0.8,0,1.4,0.6,1.4,1.3s-0.6,1.3-1.4,1.3c-0.8,0-1.4-0.6-1.4-1.3S181.7,40.8,182.4,40.8z
			 M183.5,46h-2v10.4h2V46z"/>
		<path fill="#8DC63F" d="M186.2,51.2c0-3.3,2.5-5.4,5.5-5.4s5.5,2.1,5.5,5.4c0,3.3-2.5,5.5-5.5,5.5S186.2,54.5,186.2,51.2z
			 M195,51.2c0-2.1-1.6-3.4-3.4-3.4c-1.9,0-3.4,1.3-3.4,3.4c0,2.1,1.6,3.5,3.4,3.5C193.5,54.7,195,53.3,195,51.2z"/>
		<path fill="#8DC63F" d="M201.8,56.4h-2V46h2v1.6c0.6-1.3,2.1-1.8,3.3-1.8c2.6,0,4,1.7,4,4.6v6c-0.3,0-1.7,0-2,0v-5.9
			c0-1.7-0.9-2.8-2.3-2.8c-1.5,0-3,0.8-3,3V56.4z"/>
		<path fill="#8DC63F" d="M231.2,54c-1.4,1.6-3.4,2.7-5.8,2.7c-4.4,0-7.8-3.5-7.8-7.9c0-4.4,3.4-7.9,7.8-7.9c2.4,0,4.4,1,5.8,2.6
			l-1.6,1.3c-1.1-1.1-2.5-1.9-4.2-1.9c-3.2,0-5.7,2.6-5.7,5.9s2.5,5.9,5.7,5.9c1.7,0,3.2-0.8,4.3-2L231.2,54z"/>
		<path fill="#8DC63F" d="M243.2,52h-8.5c0.2,1.7,1.6,2.8,3.4,2.8c1.3,0,2.4-0.6,3-1.6c0.5,0.2,1.2,0.4,1.7,0.7
			c-0.9,1.8-2.8,2.8-4.8,2.8c-3,0-5.3-2.2-5.3-5.5c0-3.3,2.4-5.4,5.3-5.4s5.2,2.1,5.2,5.4C243.2,51.4,243.2,51.8,243.2,52z
			 M241.2,50.4c-0.2-1.7-1.5-2.8-3.2-2.8c-1.7,0-3.1,1.1-3.3,2.8H241.2z"/>
		<path fill="#8DC63F" d="M247.9,56.4h-2V46h2v1.6c0.6-1.3,2.1-1.8,3.3-1.8c2.6,0,4,1.7,4,4.6v6c-0.3,0-1.7,0-2,0v-5.9
			c0-1.7-0.9-2.8-2.3-2.8c-1.5,0-3,0.8-3,3V56.4z"/>
		<path fill="#8DC63F" d="M263.4,46v1.7h-2.2v8.7h-2v-8.7h-1.9V46h1.9v-3.9h2V46H263.4z"/>
		<path fill="#8DC63F" d="M275.4,52h-8.5c0.2,1.7,1.6,2.8,3.4,2.8c1.3,0,2.4-0.6,3-1.6c0.5,0.2,1.2,0.4,1.7,0.7
			c-0.9,1.8-2.8,2.8-4.8,2.8c-3,0-5.3-2.2-5.3-5.5c0-3.3,2.4-5.4,5.3-5.4s5.2,2.1,5.2,5.4C275.4,51.4,275.4,51.8,275.4,52z
			 M273.4,50.4c-0.2-1.7-1.5-2.8-3.2-2.8c-1.7,0-3.1,1.1-3.3,2.8H273.4z"/>
		<path fill="#8DC63F" d="M280,56.4h-2V46h2v2.3c0.5-1.8,1.5-2.6,2.9-2.6c0.7,0,1.5,0.2,1.8,0.4l-0.3,1.9c-0.6-0.3-1.1-0.4-1.5-0.4
			c-2,0-2.9,2.1-2.9,4.9V56.4z"/>
	</g>
	<g>
		<path fill="#FFFFFF" d="M90,35.4c-0.9,0-1.8-0.4-2.3-1.1L75.3,17.2v16c0,1.2-1,2.2-2.3,2.2c-1.2,0-2.2-1-2.2-2.2V12.4
			c0-1.5,1.3-2.9,2.9-2.9c1,0,1.9,0.5,2.5,1.2l12.1,16.5V11.7c0-1.2,1-2.2,2.3-2.2c1.2,0,2.2,1,2.2,2.2v20.9
			C92.8,34.1,91.7,35.4,90,35.4z"/>
		<path fill="#FFFFFF" d="M111.4,27.3H99.3c0.3,2.7,2.4,5.1,5.8,5.1c1.3,0,2.9-0.4,4.1-1.2c0.3-0.2,0.6-0.2,0.8-0.2
			c0.8,0,1.7,0.7,1.7,1.7c0,2.1-4.7,3-7.1,3c-5.5,0-9.6-3.8-9.6-9.7c0-5.3,3.9-9.6,9.3-9.6c4.3,0,7.4,2.6,8.6,6.6
			c0.2,0.8,0.5,1.6,0.5,2.4C113.4,26.4,112.5,27.3,111.4,27.3z M104.4,19.6c-3.4,0-4.9,2.7-5.1,4.9h10.2
			C109.4,22.3,108,19.6,104.4,19.6z"/>
		<path fill="#FFFFFF" d="M140.3,19l-4.5,14.4c-0.3,1.1-1.4,1.9-2.6,1.9h-0.1c-1.2,0-2.3-0.8-2.6-1.9l-3.7-11.7l-3.7,11.7
			c-0.3,1.1-1.4,1.9-2.7,1.9h-0.1c-1.2,0-2.2-0.8-2.6-1.9L113.3,19c0-0.2-0.1-0.4-0.1-0.6c0-1,0.8-1.9,2-1.9c0.9,0,1.7,0.6,1.9,1.4
			l3.5,12.1l3.9-11.9c0.3-1,1.2-1.6,2.3-1.6c1,0,1.9,0.6,2.2,1.6l3.9,11.9l3.5-12.1c0.2-0.8,1.1-1.4,1.9-1.4c1.2,0,2,0.9,2,1.9
			C140.4,18.7,140.4,18.9,140.3,19z"/>
		<path fill="#FFFFFF" d="M169.8,35.4c-1.3,0-2.2-1-2.2-2.2v-9h-13.1v9c0,1.2-1,2.2-2.3,2.2c-1.2,0-2.2-1-2.2-2.2V11.7
			c0-1.2,1-2.2,2.3-2.2c1.2,0,2.2,1,2.2,2.2v8.4h13.1v-8.4c0-1.2,1-2.2,2.3-2.2c1.2,0,2.2,1,2.2,2.2v21.4
			C172.1,34.4,171.1,35.4,169.8,35.4z"/>
		<path fill="#FFFFFF" d="M183.9,35.6c-5.9,0-9.5-4.4-9.5-9.7c0-5.3,3.6-9.6,9.5-9.6c5.9,0,9.5,4.4,9.5,9.6
			C193.4,31.2,189.8,35.6,183.9,35.6z M183.9,19.9c-3.4,0-5.3,2.8-5.3,6c0,3.2,1.9,6.1,5.3,6.1c3.4,0,5.2-2.8,5.2-6.1
			C189.1,22.7,187.2,19.9,183.9,19.9z"/>
		<path fill="#FFFFFF" d="M203.6,20.4c-1.6,0.2-3.2,0.8-4.2,2.2v10.7c0,1.1-0.9,2-2,2h-0.1c-1.1,0-2-0.9-2-2V18.5c0-1.1,0.9-2,2.1-2
			c1.1,0,2,0.9,2,2v1c1-1.3,2.4-2.9,4.4-2.9c1.1,0,1.8,0.8,1.8,1.8C205.5,19.5,204.7,20.3,203.6,20.4z"/>
		<path fill="#FFFFFF" d="M211.7,12c0,1.4-1.1,2.5-2.5,2.5c-1.4,0-2.5-1.1-2.5-2.5c0-1.4,1.1-2.5,2.5-2.5
			C210.6,9.5,211.7,10.6,211.7,12z M209.2,35.4c-1.1,0-2-0.9-2-2V18.5c0-1.1,0.9-2,2.1-2c1.1,0,2,0.9,2,2v14.9
			C211.3,34.5,210.4,35.4,209.2,35.4z"/>
		<path fill="#FFFFFF" d="M228,35.2h-11.4c-1.1,0-2-0.9-2-2.1c0-0.5,0.2-0.9,0.5-1.3l8.8-11.4h-7.5c-1,0-1.8-0.8-1.8-1.8
			c0-1,0.8-1.8,1.8-1.8h11.2c1,0,1.9,0.8,1.9,2c0,0.5-0.2,1-0.4,1.3l-8.9,11.6h7.8c0.9,0,1.7,0.8,1.7,1.7
			C229.7,34.4,228.9,35.2,228,35.2z"/>
		<path fill="#FFFFFF" d="M239.3,35.6c-5.9,0-9.5-4.4-9.5-9.7c0-5.3,3.6-9.6,9.5-9.6c5.9,0,9.5,4.4,9.5,9.6
			C248.8,31.2,245.2,35.6,239.3,35.6z M239.3,19.9c-3.4,0-5.3,2.8-5.3,6c0,3.2,1.9,6.1,5.3,6.1c3.4,0,5.2-2.8,5.2-6.1
			C244.5,22.7,242.6,19.9,239.3,19.9z"/>
		<path fill="#FFFFFF" d="M265.1,35.4c-1.1,0-2-0.9-2-2v-9.7c0-2.8-1.4-3.8-3.7-3.8c-2,0-3.8,1.2-4.6,2.4v11c0,1.1-0.9,2-2.1,2
			c-1.1,0-2-0.9-2-2V18.5c0-1.1,0.9-2,2.1-2c1.1,0,2,0.9,2,2v0.8c1.2-1.4,3.5-3,6.5-3c4,0,5.9,2.2,5.9,5.9v11.2
			C267.2,34.5,266.3,35.4,265.1,35.4z"/>
		<path fill="#FFFFFF" d="M276.6,35.6c-2.5,0-5.8-0.8-7.2-2.4c-0.2-0.3-0.4-0.6-0.4-1c0-1,0.8-1.7,1.8-1.7c0.3,0,0.6,0.1,0.9,0.3
			c1.4,1,3.3,1.6,5.1,1.6c2.4,0,3.6-1,3.6-2.4c0-3.6-11.1-1-11.1-8.1c0-3,2.6-5.6,7.3-5.6c2.5,0,5.3,0.8,6.5,2.2
			c0.2,0.3,0.3,0.6,0.3,0.9c0,0.9-0.8,1.6-1.6,1.6c-0.3,0-0.6-0.1-0.8-0.2c-1.2-0.8-2.7-1.3-4.4-1.3c-2.1,0-3.4,1-3.4,2.2
			c0,3.2,11.1,0.8,11.1,8.1C284.2,33.1,281.5,35.6,276.6,35.6z"/>
	</g>
</g>
</svg>
