<?xml version="1.0" encoding="utf-8"?>
<!-- Generator: Adobe Illustrator 18.1.1, SVG Export Plug-In . SVG Version: 6.00 Build 0)  -->
<svg version="1.1" id="Layer_1" xmlns="http://www.w3.org/2000/svg" xmlns:xlink="http://www.w3.org/1999/xlink" x="0px" y="0px"
	 viewBox="0 0 175.7 137.4" enable-background="new 0 0 175.7 137.4" xml:space="preserve">
<g>
	<path fill-rule="evenodd" clip-rule="evenodd" fill="#FFFFFF" d="M89.2,0.9c7.1,5.5,15.9,9.9,26.1,13c8.9,2.7,18.9,4.5,29.7,5.4
		l1.8,0.1v23.3H175v50.6h-17.3L156,95l-4.2,3.8c-19,16.9-45.5,37.2-63.5,38h-0.1H88c-13.8-0.5-37.2-14.2-64-37.7L20,95.5l-2.1-2.2H0
		V42.7h28.8V19.4l1.9-0.1c22.8-1.1,40.1-6.8,56.2-18.5L88,0L89.2,0.9L89.2,0.9z"/>
	<path fill-rule="evenodd" clip-rule="evenodd" d="M88,2.5c15.6,12.1,36.7,17.3,56.8,18.8v16.5c-4.3-0.2-7.7,4.2-7.7,7l35.9,0v46.6
		h-33.3c0.8,4.3,6.6,6.2,10.7,6c-22.1,19.6-46.5,36.8-62.3,37.5c-14.4-0.5-38.7-16.2-62.8-37.2c10,0.2,10.9-6.2,10.9-6.2L2,91.3
		V44.7h35.8c-0.2-3.4-3.3-6.6-7-6.9V21.3C52.1,20.3,70.5,15.2,88,2.5L88,2.5z"/>
	<path fill-rule="evenodd" clip-rule="evenodd" fill="#F58220" d="M140.7,24.9c0,2.9,0,7,0,10.3c-3.9,0.8-7.9,6.2-7.9,9.5
		c-2.3,0-3.2,0-3.2,0c0.3-6.4,3.9-9.6,7.9-11.7c0-2,0-3.1,0-5.1c-17.1-0.4-37-7.8-49.4-16.2c-11.3,7.6-32.5,15.7-49.8,16.2
		c0,1.1,0,3.4,0,5.1c4.5,2.3,7.2,6.8,7.5,11.7c-1.8,0-2.4,0-3.4,0c-0.7-5.1-3.6-7.8-7.2-9.8c0-3.3,0-6.4,0-9.8
		C54.7,24,76.6,16.4,87.9,7.7C98.7,16.6,121.4,23.4,140.7,24.9L140.7,24.9z"/>
	<path fill-rule="evenodd" clip-rule="evenodd" fill="#F58220" d="M122.1,33.4c0.4,0.5,0.7,3.2-0.7,3.2c-1.7-0.1-2.3-0.1-4.8-0.2
		l0-4C118.7,32.6,121.8,33,122.1,33.4L122.1,33.4z M125.2,30.9c1.9,2.1,1.4,7.5-0.2,8c1.7,1.3,1.4,5.8,1.4,5.8h-3.7
		c0-4.5-0.9-4.6-3-4.6c-1.6,0-1.1,0-3,0v4.6h-3.8V27.7C118.1,28.8,124.2,29.8,125.2,30.9L125.2,30.9z M105.9,30.6c0,3.9,0,5.2,0,8.9
		c0,1.8-1.7,1.5-2.8,1.5c-1.6,0-3.2,0.3-3.1-2.6c0,0,0-5.6,0-9c0-2,1.2-1.7,3-1.1C104.2,28.5,105.9,28.5,105.9,30.6L105.9,30.6z
		 M76.2,40.1c0,0.7-0.3,0.9-0.8,0.9c-1,0-2.8,0-4.1,0c-0.8,0-1.1-0.7-1.1-1.3c0-2.7-0.3-9.3,0.7-10.3c0.3-0.3,5.3-3.2,5.3-0.8
		C76.2,28.5,76.2,39.3,76.2,40.1L76.2,40.1z M60.1,44.7c0-2.2,0.1-5.8-0.4-6.4c-1.1,1.9-2,4.3-2.9,6.2c-0.9-1.8-1.9-4-3-5.5
		l-0.1,5.7l-3.9,0V30.4c2.1-0.4,2.8-0.5,3.9-0.7l3.1,6.7l3.2-7.9c1.1-0.3,1-0.3,4-0.9v17.3H60.1L60.1,44.7z M80,26.8
		c0,6.3,0,12.2,0,14.6c0,3.4-1.2,3.3-7,3.3c-4.7,0-6.3,0.1-6.3-4.7v-10c0.1-3.8,1.1-3.6,5.4-5.7C78.7,21.1,79.8,22.2,80,26.8
		L80,26.8z M109.7,28.9c0,2.2,0,12,0,12c0,3.8-1.3,3.8-6.6,3.8c-5,0-7.1,0-7.1-3.8c0,0,0-10.9,0-15c0-5.4,4.4-3.1,7.7-1.8
		C106.9,25.5,109.7,26,109.7,28.9L109.7,28.9z M95.6,20.6l0,4.4l-5.5-2.7v22.5h-4.3c0-7.4,0-22.5,0-22.5l-5.4,2.7l0-4.3
		c0,0,6.1-3.1,7.4-4.1C89.2,17.5,95.6,20.6,95.6,20.6L95.6,20.6z"/>
	<polygon fill-rule="evenodd" clip-rule="evenodd" fill="#F58220" points="6.3,49.1 168.8,49.1 168.8,86.8 6.3,86.8 6.3,49.1 	"/>
	<polygon fill-rule="evenodd" clip-rule="evenodd" points="9.9,52.3 165.7,52.3 165.7,83.8 9.9,83.8 9.9,52.3 	"/>
	<path fill-rule="evenodd" clip-rule="evenodd" fill="#FFFFFF" d="M149.4,60.6c0,2.3,0,15.3,0,15.3c0,2.5-2.4,4.7-4.9,4.6
		c-2.1,0-4.6-1.2-4.6-4.7c0-3.4,0-8.9,0-15.3c0-4.6,2.9-5,5-5C146.7,55.4,149.4,56.2,149.4,60.6L149.4,60.6z M138.5,59.7v4.7l-3.6,0
		c0-2.9,0-4.8-1.4-4.7c-1.2,0-1,1.4-1,2.5c0,3.1,1.6,3.7,3.2,4.9c2.2,1.6,2.9,2.7,2.9,7.3c0,3.4-1.1,6-4.8,6c-4.3,0-4.9-2-4.9-9.4
		c0.6,0,2.8,0,3.6,0c0,1.2,0,3,0,3.6c0,0.7-0.1,2.1,1.4,2.1c0.9,0,1.2-0.7,1.2-2.8c0-2.4-0.7-3.1-1.5-3.8c-1.6-1.2-4.6-2.4-4.6-6.1
		c0-3.3-0.5-8.4,4.9-8.3C137.1,55.6,138.5,57.4,138.5,59.7L138.5,59.7z M18.2,65.3h2.6v-9.1h3.6v23.8h-3.6v-9.9c-1,0-1.5,0-2.5,0
		l0,9.9h-3.6V56.2h3.6V65.3L18.2,65.3z M33.3,56.2c0.9,7.7,1.8,15.4,2.6,23.8h-3.3c-0.3-2.1-0.6-4.3-0.7-5.7h-2.4l-0.7,5.7h-3.4
		c0.8-7.8,1.7-15.7,2.4-23.8H33.3L33.3,56.2z M42.9,56.2c3.5,0,3.9,4.1,3.9,6.6c0,1.1,0.1,3.3-1.8,5.1c1.2,1.1,1.8,1.9,1.8,4.5
		c0,2.5,0,4.6,0,7.6h-2.3c-0.4,0-1.4-0.3-1.4-1c0-1.5,0-4.7,0-6.5c0-1.5-0.9-1.6-1.7-1.6h-0.6v9.2h-3.9l0.1-23.8
		C38.4,56.2,38.9,56.2,42.9,56.2L42.9,56.2z M52,76.1c1.3,0,2.3,0,3.6,0v4h-7.4V56.2H52V76.1L52,76.1z M63.7,60h-3.6v5.6
		c1.4,0,2.3,0,3.6,0v4.2h-3.6V76c1.3,0,2.2,0,3.5,0v4h-7.3V56.2h7.4V60L63.7,60z M67.8,56.2c0.5,2.5,0.9,5,1.6,7.8
		c0.8-2.8,1-5.1,1.8-7.8h3.5c-1,5-2.3,9.4-3.6,14c0,3.8,0,5.9,0,9.6h-3.6c0-3.9,0-6.7,0-9.6c-1.2-4.7-2.6-9.3-3.5-14
		C65.9,56.2,66.7,56.2,67.8,56.2L67.8,56.2z M88.5,56.2c1.9,0,3.1,1.3,3.1,4.1c0,5.1,0,11.2,0,15.5c0,1.9-1.3,4.2-4.3,4.2
		c-1.3,0-3,0-5.1,0V56.2C85.1,56.2,86.1,56.2,88.5,56.2L88.5,56.2z M103.2,79.8h-3.4c-0.4-1.9-0.6-3.8-0.9-5.8c-1,0-1.8,0-2.5,0
		l-0.7,5.8h-3.4c0.7-7.9,2-16,2.8-23.8h5.1L103.2,79.8L103.2,79.8z M105.8,56c0.4,4.6,0.9,9.5,1.4,14.1c0,0,1.2-9.9,1.7-14.1h3.5
		l-3.3,23.8h-3.8L102.1,56H105.8L105.8,56z M116.7,79.9h-3.6V56h3.6L116.7,79.9L116.7,79.9z M123.9,56c1.8,0,3.9,1.1,3.9,4.2V76
		c0,2.6-1.5,3.9-4.6,3.9c-1.7,0-3.7,0-4.9,0V56C119.7,56,121.9,56,123.9,56L123.9,56z M155.4,56c0.8,3.6,1.5,7.4,2.3,10.9L157.5,56
		h3.6v23.6h-4.2c-0.8-4.4-1.6-8.6-2.5-13.1l0.1,13.1h-3.8V56H155.4L155.4,56z M145.8,60.6c0,1.4,0,9,0,14.5c0,2.3-2.5,1.7-2.5-0.3
		c0-5.4,0-11.1,0-14.2C143.3,59,145.8,59,145.8,60.6L145.8,60.6z M88.1,61c0,0.9,0,11,0,13.9c0,0.6-0.4,1.1-0.9,1.1
		c-0.8,0-0.7,0-1.3,0l0-16.2C85.9,59.8,88.1,59.4,88.1,61L88.1,61z M124.4,61.1c0,4.1,0,13.8,0,13.8c0,1.1-0.3,1.2-2.4,1.2V59.8
		c0,0,0.5,0,1.2,0C123.7,59.8,124.4,60.4,124.4,61.1L124.4,61.1z M42.9,61.3c0,1,0,2.7,0,3.8c0,0.9-0.4,1.2-0.8,1.2h-1.4V60
		C42.1,60,42.9,60,42.9,61.3L42.9,61.3z M98.4,69.7h-1.6l0.8-8.5C98,63.5,98.2,67.3,98.4,69.7L98.4,69.7z M31.4,69.7H30l0.4-8.6
		C30.9,64.1,31.1,66.6,31.4,69.7L31.4,69.7z M74.2,66.7h6.5v3h-6.5V66.7L74.2,66.7z"/>
	<path fill-rule="evenodd" clip-rule="evenodd" fill="#F58220" d="M44.6,91.3c-0.1,3.9-1.7,6.7-4.2,8.8c15.9,14.2,37.3,26.3,47.8,27
		c10.7-0.7,31.5-13.6,47.4-27.1c-3.2-2.8-4.1-5.2-4.1-8.7c1.5,0,2.2,0,3.2,0c0.3,4.1,4.6,7.4,6.5,8.2
		c-23.4,19.3-38.2,28.7-53.2,30.7c-15.6-2.2-30.7-11.5-53.3-30.5c3.2-1.4,6.3-4.7,6.3-8.4H44.6L44.6,91.3z"/>
	<path fill-rule="evenodd" clip-rule="evenodd" fill="#F58220" d="M102.4,108.4c-0.9,0.4-1.6,0.5-2.8,0.8c0,0,1.2-9.5,1.5-9.6
		C101.4,99.6,102.4,108.4,102.4,108.4L102.4,108.4z M90.8,94.7c0.6,0,1,0.4,1,1.3c0,2.3,0,6.5,0,9.2c0,1-0.5,1.5-2.8,1.6V94.7H90.8
		L90.8,94.7z M64.7,96c0,4.3,0,7.6,0,11.6c0,2.1-1.4,1.1-1.9,0.8c-0.4-0.3-1.7-0.7-1.7-2.2c0-2.9,0-7.9,0-10.4c0-1,1.1-1.1,1.5-1.1
		C63.9,94.7,64.7,94.6,64.7,96L64.7,96z M55.8,91.3c0.6,0,0.8,0.3,0.8,0.8c0,0,0,1.7,0,2.2c0,0.6-0.5,0.6-0.5,0.6
		c-0.2,0-3.2,0-3.7,0c0,1.2,0,3.1,0,6c0,1,2.3,2,3.9,3.1c0,1.8,0,2.5,0,3.9c-2.5-1.4-7.3-4.7-7.3-6.1c0-2.4,0-6,0-8.5
		c0-1.2,1.2-2.2,2.3-2.2H55.8L55.8,91.3z M121.4,91.3c0.5,2,0.9,5,1.5,7l1.9-7c1,0,2.2,0,3.1,0c-0.9,2.9-2.6,6.5-3.5,8.5
		c0,1.7,0,4.1,0,5.2c-0.8,0.6-2.1,1.6-3.2,2.4c0-3,0-4.3,0-6.4c-1.1-3.3-2.3-6.6-3.3-9.7C118.6,91.3,120.4,91.3,121.4,91.3
		L121.4,91.3z M110.9,91.3c1.1,3.7,2.4,10.1,2.4,10.1h0.3V91.3h3.4c0,6.3,0,12.5,0,18.7c-1.1,0.8-2,1.4-3.1,2c-1-3.4-1.7-5.9-3-9.5
		l0.1,11.5l-3.5,2.1V91.3H110.9L110.9,91.3z M102.9,91.3c1.6,8.5,3,16.6,4.2,24.9c-0.8,0.5-1.8,1.2-3.3,1.7c-0.3-2-0.6-4.1-0.9-6
		c-1.5,0.3-2.7,0.6-4,1.1c-0.3,2.1-0.8,5-1.2,7.7c-0.8,0.4-1.7,0.7-4,1.5l5.2-31H102.9L102.9,91.3z M92.5,91.3
		c2.3,0,3.1,1.8,3.1,3.3l0,11.5c-0.2,3.6-1.7,3.8-6.6,4.3l0,13c-1,0.7-1.7,0.6-3.8-0.3V91.3C87.9,91.3,90.7,91.3,92.5,91.3
		L92.5,91.3z M72.3,91.3c0.9,0,1.1,1.3,1.1,1.3s2.4,8.4,3.2,11.5c1.4-4.8,2.3-8.5,3.4-12.8h3.4v31.5l-3.4-1.3l0-16.8l-0.4,0
		c-1,3.2-1.9,6.7-2.9,9.8c-1-2.8-2.6-7.9-3.7-11.6h-0.3c0,4.7,0,9.9,0,15.3c-1.4-0.5-2-0.8-3.2-1.7V91.3
		C70.6,91.3,71.6,91.3,72.3,91.3L72.3,91.3z M68.1,94.2c0,0,0,11.9,0,17.5c0,2-1.1,2.7-1.8,2.6c-1.1-0.1-1.8-0.7-4.3-2.4
		c-2.5-1.7-4-2.2-4-4.9c0-1.9,0-9.9,0-13.7c0-2.2,3-2.1,4.9-2.1C66.2,91.3,68.1,91.2,68.1,94.2L68.1,94.2z"/>
	<path fill-rule="evenodd" clip-rule="evenodd" d="M150,93.5c0.2,0.2,0.4,0.5,0.4,0.9c0,0.3-0.1,0.6-0.4,0.9
		c-0.2,0.2-0.5,0.4-0.9,0.4c-0.3,0-0.6-0.1-0.9-0.4c-0.2-0.2-0.4-0.5-0.4-0.9c0-0.3,0.1-0.6,0.4-0.9c0.2-0.2,0.5-0.4,0.9-0.4
		C149.4,93.1,149.7,93.2,150,93.5L150,93.5z M150.1,93.3c-0.3-0.3-0.6-0.4-1-0.4c-0.4,0-0.7,0.1-1,0.4c-0.3,0.3-0.4,0.6-0.4,1
		c0,0.4,0.1,0.7,0.4,1c0.3,0.3,0.6,0.4,1,0.4c0.4,0,0.7-0.1,1-0.4c0.3-0.3,0.4-0.6,0.4-1C150.5,94,150.4,93.6,150.1,93.3L150.1,93.3
		z M149.3,94.3c-0.1,0-0.1,0-0.3,0h-0.2v-0.6h0.2c0.2,0,0.3,0,0.3,0.1c0.1,0,0.1,0.1,0.1,0.2C149.5,94.2,149.4,94.2,149.3,94.3
		L149.3,94.3z M148.5,95.1h0.3v-0.6h0.2c0.1,0,0.2,0,0.3,0.1c0.1,0.1,0.2,0.2,0.2,0.4V95l0,0.1c0,0,0,0,0,0c0,0,0,0,0,0h0.3l0,0
		c0,0,0,0,0-0.1c0,0,0-0.1,0-0.1v-0.1c0-0.1,0-0.2-0.1-0.2c-0.1-0.1-0.1-0.1-0.3-0.2c0.1,0,0.2,0,0.2-0.1c0.1-0.1,0.2-0.2,0.2-0.3
		c0-0.2-0.1-0.3-0.2-0.4c-0.1,0-0.2-0.1-0.4-0.1h-0.6V95.1L148.5,95.1z"/>
</g>
</svg>
